<?xml version="1.0" encoding="utf-8"?>
<!-- Generator: Adobe Illustrator 16.0.0, SVG Export Plug-In . SVG Version: 6.00 Build 0)  -->
<!DOCTYPE svg PUBLIC "-//W3C//DTD SVG 1.1//EN" "http://www.w3.org/Graphics/SVG/1.1/DTD/svg11.dtd">
<svg version="1.1" id="Layer_1" xmlns="http://www.w3.org/2000/svg" xmlns:xlink="http://www.w3.org/1999/xlink" x="0px" y="0px"
	 width="447.333px" height="218px" viewBox="0 0 447.333 218" enable-background="new 0 0 447.333 218" xml:space="preserve">
<image overflow="visible" width="575" height="575" xlink:href="C0886C4A.jpg"  transform="matrix(0.231 0 0 0.231 36.1514 36.3779)">
</image>
<rect x="-0.326" y="-0.154" width="449.737" height="217.5"/>
<circle fill="none" cx="103.478" cy="102.745" r="46.788"/>
<radialGradient id="SVGID_1_" cx="85.3667" cy="103.5571" r="38.2251" gradientUnits="userSpaceOnUse">
	<stop  offset="0.2312" style="stop-color:#FFF799"/>
	<stop  offset="0.292" style="stop-color:#FFE185"/>
	<stop  offset="0.417" style="stop-color:#FDBD63"/>
	<stop  offset="0.5416" style="stop-color:#F99F48"/>
	<stop  offset="0.6637" style="stop-color:#F68934"/>
	<stop  offset="0.7823" style="stop-color:#F47928"/>
	<stop  offset="0.8962" style="stop-color:#F36F23"/>
	<stop  offset="1" style="stop-color:#F36C21"/>
</radialGradient>
<path fill="url(#SVGID_1_)" d="M86.611,146.043l5.083-23.105l-0.77-4.621c0,0-21.411,1.387-24.03-2.157
	c-2.619-3.542-5.854-7.548,3.543-16.482c9.396-8.934,20.333-20.096,20.333-20.096l-1.232,15.629l-8.223,8.472l14.538,0.154
	l6.316-26.494l2.157-10.167l6.161-0.308l4.313-5.853l-1.848-1.541l1.387-1.386l2.156,1.078v-0.924c0,0-11.531-4.122-25.142-0.599
	c-8.037,2.119-15.184,6.079-20.991,11.767c-5.964,5.842-10.517,13.507-13.17,22.873C57.19,92.284,48.41,129.099,86.611,146.043z"/>
<path fill="#363636" d="M103.741,70.565c0,0,11.521-0.078,21.842,8.934l-1.695,8.934c0,0-6.854-11.629-21.719-11.091
	C103.324,72.106,103.741,70.565,103.741,70.565z"/>
<path d="M103.971,68.024c0,0,10.597-0.462,21.842,8.934l-0.154,2.772c0,0-7.548-8.164-22.105-9.473
	C104.71,65.02,103.971,68.024,103.971,68.024z"/>
<circle fill="none" stroke="#F15F22" stroke-width="3.2348" stroke-miterlimit="10" cx="102.972" cy="103.501" r="61.966"/>
<ellipse fill="#FFF689" cx="78.711" cy="123.761" rx="4.366" ry="0.492"/>
<radialGradient id="SVGID_2_" cx="76.6167" cy="97.4326" r="22.4764" gradientUnits="userSpaceOnUse">
	<stop  offset="0.2312" style="stop-color:#FFF8A5"/>
	<stop  offset="0.292" style="stop-color:#FFE18F"/>
	<stop  offset="0.417" style="stop-color:#FDBD6A"/>
	<stop  offset="0.5416" style="stop-color:#F99F4C"/>
	<stop  offset="0.6637" style="stop-color:#F68937"/>
	<stop  offset="0.7823" style="stop-color:#F47929"/>
	<stop  offset="0.8962" style="stop-color:#F36F23"/>
	<stop  offset="1" style="stop-color:#F36C21"/>
</radialGradient>
<path fill="url(#SVGID_2_)" d="M94.313,71.027l-2.002,23.876l-8.01,8.626l-8.626,9.088l14.788,5.854l1.232,4.929
	c0,0-26.803,2.503-30.961-4.468c-3.966-6.646-1.386-13.709,7.394-21.565C76.907,89.512,94.313,71.027,94.313,71.027z"/>
<radialGradient id="SVGID_3_" cx="127.8965" cy="108.2573" r="36.8819" gradientUnits="userSpaceOnUse">
	<stop  offset="0" style="stop-color:#FFFFFF"/>
	<stop  offset="1" style="stop-color:#BDBDBD"/>
</radialGradient>
<path fill="url(#SVGID_3_)" d="M129.279,65.02c0,0,28.035,15.25,19.255,51.449c-12.938,37.584-48.521,35.12-59.612,30.191
	l28.804-27.42l7.933-39.51C125.659,79.73,129.125,71.49,129.279,65.02z"/>
<linearGradient id="SVGID_4_" gradientUnits="userSpaceOnUse" x1="84.0698" y1="124.9541" x2="126.0508" y2="124.9541">
	<stop  offset="0" style="stop-color:#969696"/>
	<stop  offset="0.1834" style="stop-color:#BBBBBB"/>
	<stop  offset="0.5484" style="stop-color:#FFFFFF"/>
	<stop  offset="0.5864" style="stop-color:#F2F2F2"/>
	<stop  offset="0.7681" style="stop-color:#B5B7B9"/>
	<stop  offset="0.8548" style="stop-color:#9EA0A2"/>
	<stop  offset="0.8858" style="stop-color:#989A9C"/>
	<stop  offset="1" style="stop-color:#878787"/>
</linearGradient>
<path fill="url(#SVGID_4_)" stroke="#FFFFFF" stroke-width="0.4621" stroke-miterlimit="10" d="M121.385,103.259
	c0,0,10.281-0.577,9.473,6.354c-0.808,6.933-2.195,11.207-4.506,12.13c-2.31,0.925-8.664,1.04-8.664,1.04l-1.501,7.626
	c0,0-0.924,4.274-1.848,6.584c-0.925,2.312-2.542,6.354-12.247,5.778c-9.704-0.578-13.169,3.89-13.169,3.89s5.198-8.05,8.433-10.014
	c3.234-1.963,10.744,0,14.787-1.963C116.186,132.718,120.113,103.259,121.385,103.259z"/>
<linearGradient id="SVGID_5_" gradientUnits="userSpaceOnUse" x1="120.2876" y1="54.0273" x2="94.4252" y2="115.2675">
	<stop  offset="0" style="stop-color:#FFFFFF"/>
	<stop  offset="0.0657" style="stop-color:#D8D8D8"/>
	<stop  offset="0.1616" style="stop-color:#A6A6A6"/>
	<stop  offset="0.2622" style="stop-color:#797979"/>
	<stop  offset="0.3657" style="stop-color:#545454"/>
	<stop  offset="0.4729" style="stop-color:#353535"/>
	<stop  offset="0.585" style="stop-color:#1E1E1E"/>
	<stop  offset="0.704" style="stop-color:#0D0D0D"/>
	<stop  offset="0.8348" style="stop-color:#030303"/>
	<stop  offset="1" style="stop-color:#000000"/>
</linearGradient>
<path fill="url(#SVGID_5_)" d="M90.77,79.583l-1.232,15.629l-8.223,8.472l14.538,0.154l6.316-26.494c0,0,13.709-0.77,21.719,11.091
	l-3.235,16.636c0,0,9.242-1.694,8.01,4.929s-1.078,8.934-8.472,9.704l-2.464,0.309l-1.694,9.857c0,0-1.078,5.083-7.855,5.546
	c-6.778,0.461-11.861-1.387-15.404,6.006c-2.465,3.235-3.851,4.622-3.851,4.622h-2.311l5.083-23.105l-0.77-4.621
	c0,0-20.14,1.406-24.03-2.157c-3.249-2.976-5.854-7.548,3.543-16.482C79.833,90.744,90.77,79.583,90.77,79.583z"/>
<g>
	<ellipse fill="#FFFFFF" cx="82.53" cy="103.567" rx="0.308" ry="3.582"/>
	<ellipse fill="#FFFFFF" cx="82.53" cy="103.568" rx="3.581" ry="0.308"/>
	
		<ellipse transform="matrix(0.7078 -0.7065 0.7065 0.7078 -49.215 88.7038)" fill="#FFFFFF" cx="82.607" cy="103.837" rx="0.188" ry="2.184"/>
	
		<ellipse transform="matrix(-0.7078 -0.7065 0.7065 -0.7078 67.7157 235.6862)" fill="#FFFFFF" cx="82.607" cy="103.837" rx="0.188" ry="2.184"/>
</g>
<g>
	<ellipse fill="#FFFFFF" cx="72.133" cy="93.17" rx="0.308" ry="3.582"/>
	<ellipse fill="#FFFFFF" cx="72.133" cy="93.17" rx="3.581" ry="0.308"/>
	
		<ellipse transform="matrix(0.7078 -0.7065 0.7065 0.7078 -44.9084 78.3204)" fill="#FFFFFF" cx="72.21" cy="93.44" rx="0.188" ry="2.184"/>
	
		<ellipse transform="matrix(-0.7071 -0.7071 0.7071 -0.7071 57.1975 210.5724)" fill="#FFFFFF" cx="72.21" cy="93.44" rx="0.188" ry="2.184"/>
</g>
<g>
	<ellipse fill="#FFFFFF" cx="124.638" cy="119.566" rx="0.308" ry="3.581"/>
	<ellipse fill="#FFFFFF" cx="124.638" cy="119.566" rx="3.581" ry="0.308"/>
	
		<ellipse transform="matrix(0.7065 -0.7078 0.7078 0.7065 -48.2053 123.4446)" fill="#FFFFFF" cx="124.715" cy="119.836" rx="0.188" ry="2.184"/>
	
		<ellipse transform="matrix(-0.7065 -0.7078 0.7078 -0.7065 128.0061 292.7621)" fill="#FFFFFF" cx="124.715" cy="119.836" rx="0.188" ry="2.184"/>
</g>
<g>
	<ellipse fill="#FFFFFF" cx="128.335" cy="104.317" rx="0.308" ry="3.581"/>
	<ellipse fill="#FFFFFF" cx="128.335" cy="104.317" rx="3.581" ry="0.308"/>
	
		<ellipse transform="matrix(0.7084 -0.7058 0.7058 0.7084 -36.3731 121.1301)" fill="#FFFFFF" cx="128.411" cy="104.586" rx="0.188" ry="2.184"/>
	
		<ellipse transform="matrix(-0.7084 -0.7058 0.7058 -0.7084 145.5615 269.3083)" fill="#FFFFFF" cx="128.411" cy="104.586" rx="0.188" ry="2.183"/>
</g>
<g>
	<path fill="#ED6323" d="M200.83,122.194v-10.479h-20.638v-8.739l21.877-33.073h8.118v33.037h6.26v8.774h-6.26v10.479H200.83z
		 M200.83,102.94V85.143l-11.592,17.797H200.83z"/>
	<path fill="#FFFFFF" d="M223.12,122.194V70.116h9.666v52.078H223.12z"/>
	<path fill="#FFFFFF" d="M263.847,110.187l9.63,1.67c-1.237,3.647-3.193,6.424-5.865,8.33c-2.672,1.907-6.013,2.86-10.027,2.86
		c-6.351,0-11.052-2.143-14.102-6.43c-2.408-3.434-3.612-7.768-3.612-13.002c0-6.252,1.582-11.148,4.747-14.689
		c3.165-3.54,7.166-5.311,12.004-5.311c5.435,0,9.724,1.854,12.865,5.56c3.142,3.707,4.645,9.384,4.507,17.034h-24.217
		c0.069,2.961,0.848,5.264,2.339,6.91c1.491,1.646,3.348,2.469,5.572,2.469c1.514,0,2.786-0.426,3.819-1.279
		C262.54,113.455,263.319,112.082,263.847,110.187z M264.396,100.098c-0.069-2.889-0.79-5.085-2.167-6.589
		c-1.376-1.503-3.05-2.256-5.023-2.256c-2.108,0-3.851,0.794-5.228,2.38c-1.375,1.587-2.052,3.742-2.029,6.465H264.396z"/>
	<path fill="#FFFFFF" d="M291.916,122.194l-14.723-37.727h10.147l6.879,19.254l1.995,6.43c0.527-1.634,0.859-2.711,0.998-3.233
		c0.32-1.065,0.665-2.131,1.031-3.197l6.949-19.254h9.941l-14.516,37.727H291.916z"/>
	<path fill="#FFFFFF" d="M342.205,110.187l9.63,1.67c-1.236,3.647-3.193,6.424-5.864,8.33c-2.672,1.907-6.013,2.86-10.027,2.86
		c-6.352,0-11.052-2.143-14.102-6.43c-2.408-3.434-3.611-7.768-3.611-13.002c0-6.252,1.582-11.148,4.746-14.689
		c3.164-3.54,7.166-5.311,12.004-5.311c5.435,0,9.724,1.854,12.865,5.56c3.142,3.707,4.645,9.384,4.508,17.034h-24.217
		c0.068,2.961,0.849,5.264,2.339,6.91c1.491,1.646,3.348,2.469,5.572,2.469c1.513,0,2.785-0.426,3.818-1.279
		C340.897,113.455,341.678,112.082,342.205,110.187z M342.754,100.098c-0.068-2.889-0.79-5.085-2.166-6.589
		c-1.376-1.503-3.05-2.256-5.022-2.256c-2.108,0-3.853,0.794-5.227,2.38c-1.377,1.587-2.055,3.742-2.031,6.465H342.754z"/>
	<path fill="#FFFFFF" d="M360.229,122.194V70.116h9.667v52.078H360.229z"/>
	<path fill="#FFFFFF" d="M376.395,111.43l9.701-1.527c0.413,1.942,1.249,3.417,2.511,4.422c1.261,1.007,3.027,1.51,5.298,1.51
		c2.499,0,4.38-0.474,5.641-1.421c0.848-0.663,1.274-1.551,1.274-2.664c0-0.758-0.231-1.386-0.688-1.883
		c-0.482-0.474-1.562-0.911-3.235-1.314c-7.796-1.776-12.737-3.398-14.825-4.867c-2.888-2.037-4.333-4.867-4.333-8.491
		c0-3.268,1.25-6.015,3.749-8.241s6.374-3.339,11.626-3.339c5,0,8.715,0.841,11.146,2.522c2.431,1.681,4.104,4.168,5.022,7.46
		l-9.116,1.741c-0.391-1.468-1.129-2.594-2.219-3.375c-1.089-0.782-2.642-1.172-4.661-1.172c-2.544,0-4.367,0.368-5.47,1.102
		c-0.733,0.521-1.1,1.196-1.1,2.025c0,0.71,0.32,1.314,0.963,1.812c0.871,0.664,3.881,1.599,9.029,2.806
		c5.147,1.208,8.742,2.688,10.783,4.441c2.019,1.776,3.027,4.251,3.027,7.424c0,3.458-1.399,6.43-4.195,8.917
		c-2.799,2.487-6.938,3.73-12.418,3.73c-4.978,0-8.915-1.042-11.815-3.126C379.187,117.837,377.291,115.006,376.395,111.43z"/>
</g>
<g>
	<path fill="#FFFFFF" d="M189.94,143.207l-1.145-6.989h1.159l0.599,3.85c0.065,0.421,0.146,1.108,0.243,2.06
		c0.228-0.496,0.52-1.064,0.875-1.705l2.336-4.205h1.257l-4.001,6.989H189.94z"/>
	<path fill="#FFFFFF" d="M199.627,142.338c-0.413,0.355-0.81,0.615-1.191,0.78s-0.79,0.247-1.224,0.247
		c-0.645,0-1.165-0.189-1.56-0.569s-0.592-0.865-0.592-1.458c0-0.39,0.088-0.736,0.266-1.036c0.178-0.301,0.414-0.542,0.708-0.724
		s0.654-0.313,1.079-0.392c0.268-0.052,0.776-0.094,1.523-0.125c0.748-0.031,1.285-0.11,1.609-0.237
		c0.092-0.324,0.138-0.594,0.138-0.809c0-0.276-0.102-0.493-0.303-0.651c-0.276-0.219-0.68-0.329-1.21-0.329
		c-0.5,0-0.909,0.111-1.228,0.333c-0.318,0.221-0.549,0.536-0.694,0.944l-1.204-0.105c0.246-0.693,0.635-1.224,1.168-1.593
		c0.533-0.369,1.205-0.552,2.017-0.552c0.864,0,1.549,0.206,2.053,0.618c0.386,0.307,0.579,0.707,0.579,1.198
		c0,0.373-0.055,0.805-0.165,1.297l-0.389,1.737c-0.123,0.553-0.184,1.002-0.184,1.349c0,0.22,0.048,0.536,0.145,0.948h-1.205
		C199.7,142.979,199.653,142.689,199.627,142.338z M200.068,139.666c-0.167,0.066-0.346,0.116-0.537,0.151
		c-0.19,0.035-0.51,0.073-0.957,0.112c-0.693,0.061-1.183,0.139-1.468,0.233c-0.286,0.094-0.5,0.245-0.645,0.45
		c-0.145,0.207-0.217,0.435-0.217,0.685c0,0.334,0.115,0.608,0.345,0.823c0.23,0.215,0.559,0.322,0.984,0.322
		c0.395,0,0.774-0.104,1.139-0.312c0.364-0.208,0.651-0.499,0.862-0.873C199.785,140.886,199.95,140.354,200.068,139.666z"/>
	<path fill="#FFFFFF" d="M202.319,143.207l2.014-9.647h1.191l-2.014,9.647H202.319z"/>
	<path fill="#FFFFFF" d="M210.177,141.943c-0.838,0.948-1.696,1.421-2.573,1.421c-0.54,0-0.975-0.155-1.306-0.464
		c-0.332-0.309-0.497-0.688-0.497-1.135c0-0.293,0.074-0.798,0.223-1.513l0.843-4.034h1.191l-0.935,4.468
		c-0.079,0.373-0.119,0.663-0.119,0.869c0,0.263,0.08,0.468,0.24,0.615c0.16,0.147,0.396,0.221,0.707,0.221
		c0.333,0,0.659-0.081,0.978-0.243c0.318-0.163,0.592-0.382,0.823-0.659c0.23-0.276,0.417-0.603,0.562-0.98
		c0.097-0.241,0.208-0.665,0.336-1.27l0.632-3.021h1.191l-1.46,6.989h-1.099L210.177,141.943z"/>
	<path fill="#FFFFFF" d="M218.034,140.831l1.158,0.119c-0.167,0.575-0.549,1.121-1.148,1.639s-1.313,0.776-2.142,0.776
		c-0.518,0-0.993-0.119-1.425-0.358s-0.761-0.587-0.987-1.043c-0.226-0.457-0.339-0.976-0.339-1.56c0-0.763,0.177-1.503,0.53-2.221
		c0.354-0.717,0.811-1.25,1.372-1.599c0.562-0.349,1.169-0.523,1.823-0.523c0.833,0,1.5,0.259,1.998,0.776
		c0.498,0.518,0.747,1.224,0.747,2.119c0,0.342-0.03,0.693-0.092,1.053h-5.146c-0.018,0.136-0.026,0.259-0.026,0.369
		c0,0.653,0.15,1.153,0.45,1.497c0.301,0.344,0.668,0.517,1.103,0.517c0.408,0,0.81-0.134,1.204-0.401
		C217.507,141.722,217.814,141.335,218.034,140.831z M214.572,139.1h3.922c0.004-0.123,0.007-0.21,0.007-0.263
		c0-0.597-0.149-1.054-0.448-1.372c-0.298-0.318-0.683-0.477-1.152-0.477c-0.509,0-0.973,0.176-1.392,0.526
		C215.091,137.865,214.779,138.394,214.572,139.1z"/>
	<path fill="#FFFFFF" d="M220.574,140.311l0.25-1.191h3.632l-0.243,1.191H220.574z"/>
	<path fill="#FFFFFF" d="M229.597,142.338c-0.413,0.355-0.81,0.615-1.191,0.78c-0.382,0.165-0.79,0.247-1.224,0.247
		c-0.645,0-1.165-0.189-1.56-0.569s-0.592-0.865-0.592-1.458c0-0.39,0.088-0.736,0.266-1.036c0.178-0.301,0.414-0.542,0.708-0.724
		s0.654-0.313,1.08-0.392c0.268-0.052,0.775-0.094,1.523-0.125c0.748-0.031,1.284-0.11,1.609-0.237
		c0.092-0.324,0.138-0.594,0.138-0.809c0-0.276-0.101-0.493-0.303-0.651c-0.277-0.219-0.68-0.329-1.21-0.329
		c-0.5,0-0.91,0.111-1.228,0.333c-0.318,0.221-0.549,0.536-0.694,0.944l-1.204-0.105c0.246-0.693,0.635-1.224,1.168-1.593
		c0.533-0.369,1.205-0.552,2.017-0.552c0.864,0,1.549,0.206,2.054,0.618c0.386,0.307,0.579,0.707,0.579,1.198
		c0,0.373-0.055,0.805-0.165,1.297l-0.388,1.737c-0.123,0.553-0.184,1.002-0.184,1.349c0,0.22,0.048,0.536,0.145,0.948h-1.205
		C229.668,142.979,229.623,142.689,229.597,142.338z M230.037,139.666c-0.167,0.066-0.346,0.116-0.536,0.151
		c-0.191,0.035-0.51,0.073-0.958,0.112c-0.693,0.061-1.183,0.139-1.468,0.233s-0.5,0.245-0.645,0.45
		c-0.145,0.207-0.217,0.435-0.217,0.685c0,0.334,0.115,0.608,0.345,0.823c0.23,0.215,0.558,0.322,0.984,0.322
		c0.395,0,0.774-0.104,1.139-0.312c0.364-0.208,0.651-0.499,0.862-0.873C229.754,140.886,229.918,140.354,230.037,139.666z"/>
	<path fill="#FFFFFF" d="M237.092,142.193c-0.68,0.781-1.391,1.171-2.132,1.171c-0.663,0-1.214-0.245-1.655-0.733
		c-0.44-0.489-0.662-1.199-0.662-2.129c0-0.851,0.175-1.629,0.523-2.333s0.786-1.232,1.31-1.583
		c0.524-0.352,1.049-0.526,1.576-0.526c0.869,0,1.524,0.419,1.968,1.257l0.79-3.758h1.185l-2.014,9.647h-1.099L237.092,142.193z
		 M233.828,140.278c0,0.487,0.048,0.871,0.145,1.151s0.261,0.514,0.494,0.701c0.232,0.187,0.511,0.279,0.836,0.279
		c0.54,0,1.029-0.281,1.467-0.842c0.588-0.746,0.882-1.667,0.882-2.764c0-0.553-0.145-0.984-0.435-1.296
		c-0.289-0.311-0.654-0.467-1.092-0.467c-0.285,0-0.545,0.064-0.78,0.191c-0.235,0.127-0.467,0.343-0.697,0.648
		c-0.23,0.305-0.425,0.692-0.583,1.161C233.907,139.511,233.828,139.923,233.828,140.278z"/>
	<path fill="#FFFFFF" d="M244.588,142.193c-0.681,0.781-1.391,1.171-2.133,1.171c-0.662,0-1.214-0.245-1.655-0.733
		c-0.441-0.489-0.662-1.199-0.662-2.129c0-0.851,0.174-1.629,0.523-2.333c0.349-0.704,0.785-1.232,1.31-1.583
		c0.524-0.352,1.049-0.526,1.576-0.526c0.868,0,1.524,0.419,1.968,1.257l0.789-3.758h1.185l-2.013,9.647h-1.1L244.588,142.193z
		 M241.323,140.278c0,0.487,0.048,0.871,0.145,1.151s0.261,0.514,0.494,0.701c0.232,0.187,0.511,0.279,0.836,0.279
		c0.539,0,1.028-0.281,1.467-0.842c0.588-0.746,0.882-1.667,0.882-2.764c0-0.553-0.145-0.984-0.435-1.296
		c-0.29-0.311-0.654-0.467-1.092-0.467c-0.285,0-0.545,0.064-0.78,0.191c-0.235,0.127-0.467,0.343-0.698,0.648
		c-0.23,0.305-0.424,0.692-0.583,1.161C241.402,139.511,241.323,139.923,241.323,140.278z"/>
	<path fill="#FFFFFF" d="M247.325,143.207l1.461-6.989h1.191l-1.461,6.989H247.325z M249.063,134.908l0.283-1.349h1.184
		l-0.283,1.349H249.063z"/>
	<path fill="#FFFFFF" d="M250.366,143.207l1.461-6.989h1.079l-0.257,1.217c0.47-0.478,0.909-0.827,1.316-1.046
		c0.408-0.219,0.826-0.329,1.25-0.329c0.568,0,1.011,0.153,1.333,0.46s0.484,0.717,0.484,1.23c0,0.259-0.056,0.667-0.17,1.224
		l-0.89,4.231h-1.19l0.928-4.429c0.091-0.43,0.137-0.748,0.137-0.955c0-0.232-0.079-0.421-0.239-0.566
		c-0.16-0.145-0.393-0.217-0.694-0.217c-0.61,0-1.153,0.219-1.629,0.658s-0.826,1.191-1.049,2.257l-0.678,3.251H250.366z"/>
	<path fill="#FFFFFF" d="M257.795,143.838L259,143.95c-0.009,0.272,0.024,0.476,0.099,0.612c0.074,0.136,0.192,0.241,0.355,0.316
		c0.214,0.097,0.493,0.145,0.836,0.145c0.719,0,1.237-0.187,1.553-0.56c0.206-0.25,0.396-0.794,0.572-1.632l0.119-0.566
		c-0.619,0.628-1.276,0.941-1.974,0.941c-0.706,0-1.297-0.26-1.773-0.78s-0.714-1.256-0.714-2.208c0-0.785,0.187-1.507,0.562-2.165
		c0.375-0.658,0.822-1.155,1.34-1.491c0.518-0.335,1.05-0.503,1.599-0.503c0.917,0,1.624,0.434,2.12,1.303l0.236-1.145h1.092
		l-1.407,6.746c-0.154,0.741-0.355,1.319-0.606,1.734c-0.25,0.414-0.598,0.736-1.043,0.964c-0.446,0.229-0.96,0.342-1.543,0.342
		c-0.562,0-1.045-0.072-1.451-0.217c-0.405-0.145-0.708-0.356-0.908-0.635c-0.2-0.279-0.299-0.598-0.299-0.958
		C257.763,144.084,257.773,143.965,257.795,143.838z M259.283,140.113c0,0.479,0.045,0.838,0.138,1.08
		c0.131,0.338,0.319,0.595,0.563,0.773s0.515,0.267,0.813,0.267c0.391,0,0.779-0.137,1.166-0.411
		c0.386-0.274,0.699-0.698,0.938-1.273c0.239-0.575,0.359-1.123,0.359-1.646c0-0.574-0.159-1.032-0.477-1.372
		c-0.318-0.34-0.712-0.51-1.182-0.51c-0.289,0-0.57,0.078-0.842,0.234c-0.272,0.155-0.525,0.392-0.76,0.71
		c-0.235,0.318-0.413,0.698-0.533,1.142S259.283,139.885,259.283,140.113z"/>
	<path fill="#FFFFFF" d="M269.213,140.818l1.191-0.072c0,0.342,0.053,0.633,0.158,0.875c0.105,0.241,0.299,0.439,0.582,0.592
		c0.283,0.154,0.613,0.23,0.991,0.23c0.526,0,0.921-0.105,1.184-0.315c0.264-0.211,0.395-0.458,0.395-0.744
		c0-0.207-0.079-0.402-0.237-0.586c-0.162-0.185-0.558-0.411-1.187-0.681c-0.63-0.27-1.032-0.459-1.208-0.569
		c-0.294-0.18-0.516-0.391-0.664-0.635c-0.15-0.243-0.225-0.522-0.225-0.839c0-0.552,0.219-1.026,0.658-1.421
		c0.439-0.395,1.053-0.592,1.843-0.592c0.877,0,1.546,0.203,2.004,0.608c0.458,0.406,0.697,0.94,0.714,1.603l-1.166,0.079
		c-0.018-0.421-0.166-0.755-0.447-1c-0.282-0.246-0.678-0.369-1.191-0.369c-0.413,0-0.733,0.095-0.961,0.283
		c-0.228,0.188-0.342,0.393-0.342,0.612s0.099,0.413,0.296,0.579c0.132,0.114,0.472,0.29,1.02,0.526
		c0.913,0.395,1.487,0.707,1.725,0.935c0.377,0.364,0.566,0.807,0.566,1.33c0,0.347-0.107,0.687-0.32,1.02
		c-0.212,0.334-0.537,0.601-0.973,0.8c-0.437,0.2-0.951,0.299-1.544,0.299c-0.808,0-1.494-0.199-2.06-0.599
		C269.45,142.367,269.183,141.717,269.213,140.818z"/>
	<path fill="#FFFFFF" d="M276.05,140.554c0-1.364,0.401-2.494,1.205-3.389c0.663-0.737,1.53-1.105,2.606-1.105
		c0.842,0,1.521,0.263,2.036,0.79c0.516,0.526,0.773,1.237,0.773,2.132c0,0.803-0.162,1.55-0.487,2.241
		c-0.325,0.691-0.786,1.22-1.385,1.589s-1.23,0.553-1.892,0.553c-0.544,0-1.04-0.116-1.484-0.349s-0.786-0.562-1.02-0.987
		C276.167,141.603,276.05,141.112,276.05,140.554z M277.241,140.436c0,0.658,0.158,1.157,0.474,1.497
		c0.316,0.34,0.717,0.51,1.204,0.51c0.254,0,0.507-0.051,0.757-0.154c0.25-0.104,0.483-0.26,0.697-0.471
		c0.215-0.21,0.398-0.451,0.55-0.721c0.152-0.27,0.273-0.56,0.365-0.872c0.136-0.434,0.205-0.851,0.205-1.25
		c0-0.632-0.159-1.122-0.477-1.471c-0.318-0.349-0.719-0.523-1.202-0.523c-0.374,0-0.713,0.089-1.02,0.267s-0.584,0.438-0.833,0.78
		c-0.248,0.342-0.43,0.74-0.546,1.194C277.299,139.676,277.241,140.081,277.241,140.436z"/>
	<path fill="#FFFFFF" d="M283.243,143.207l2.014-9.647h1.191l-2.014,9.647H283.243z"/>
	<path fill="#FFFFFF" d="M291.101,141.943c-0.837,0.948-1.695,1.421-2.573,1.421c-0.54,0-0.975-0.155-1.307-0.464
		c-0.331-0.309-0.497-0.688-0.497-1.135c0-0.293,0.075-0.798,0.225-1.513l0.842-4.034h1.191l-0.935,4.468
		c-0.079,0.373-0.119,0.663-0.119,0.869c0,0.263,0.08,0.468,0.24,0.615c0.16,0.147,0.396,0.221,0.707,0.221
		c0.333,0,0.66-0.081,0.978-0.243c0.318-0.163,0.591-0.382,0.822-0.659c0.23-0.276,0.418-0.603,0.563-0.98
		c0.097-0.241,0.209-0.665,0.335-1.27l0.632-3.021h1.191l-1.461,6.989h-1.099L291.101,141.943z"/>
	<path fill="#FFFFFF" d="M296.608,142.239l-0.197,0.974c-0.285,0.074-0.562,0.112-0.829,0.112c-0.474,0-0.851-0.117-1.132-0.349
		c-0.211-0.175-0.316-0.415-0.316-0.717c0-0.154,0.057-0.506,0.171-1.06l0.848-4.061h-0.941l0.191-0.921h0.941l0.362-1.718
		l1.363-0.823l-0.534,2.541h1.172l-0.198,0.921h-1.165l-0.81,3.863c-0.101,0.491-0.15,0.785-0.15,0.882
		c0,0.14,0.041,0.248,0.122,0.322c0.081,0.075,0.214,0.112,0.398,0.112C296.167,142.318,296.402,142.292,296.608,142.239z"/>
	<path fill="#FFFFFF" d="M297.523,143.207l1.461-6.989h1.19l-1.46,6.989H297.523z M299.26,134.908l0.284-1.349h1.184l-0.283,1.349
		H299.26z"/>
	<path fill="#FFFFFF" d="M300.774,140.554c0-1.364,0.401-2.494,1.205-3.389c0.663-0.737,1.53-1.105,2.606-1.105
		c0.842,0,1.521,0.263,2.036,0.79c0.516,0.526,0.774,1.237,0.774,2.132c0,0.803-0.163,1.55-0.488,2.241
		c-0.325,0.691-0.786,1.22-1.385,1.589s-1.23,0.553-1.892,0.553c-0.544,0-1.04-0.116-1.484-0.349s-0.786-0.562-1.02-0.987
		C300.892,141.603,300.774,141.112,300.774,140.554z M301.966,140.436c0,0.658,0.158,1.157,0.474,1.497
		c0.316,0.34,0.717,0.51,1.204,0.51c0.254,0,0.507-0.051,0.757-0.154c0.25-0.104,0.483-0.26,0.697-0.471
		c0.215-0.21,0.398-0.451,0.55-0.721c0.152-0.27,0.273-0.56,0.365-0.872c0.136-0.434,0.205-0.851,0.205-1.25
		c0-0.632-0.159-1.122-0.477-1.471c-0.318-0.349-0.719-0.523-1.202-0.523c-0.373,0-0.713,0.089-1.02,0.267s-0.584,0.438-0.833,0.78
		c-0.248,0.342-0.43,0.74-0.546,1.194C302.024,139.676,301.966,140.081,301.966,140.436z"/>
	<path fill="#FFFFFF" d="M308.06,143.207l1.461-6.989h1.08l-0.258,1.217c0.47-0.478,0.908-0.827,1.315-1.046
		c0.41-0.219,0.826-0.329,1.252-0.329c0.565,0,1.011,0.153,1.333,0.46s0.484,0.717,0.484,1.23c0,0.259-0.059,0.667-0.173,1.224
		l-0.888,4.231h-1.191l0.928-4.429c0.093-0.43,0.139-0.748,0.139-0.955c0-0.232-0.081-0.421-0.241-0.566
		c-0.16-0.145-0.391-0.217-0.694-0.217c-0.609,0-1.151,0.219-1.628,0.658c-0.476,0.439-0.825,1.191-1.05,2.257l-0.678,3.251H308.06z
		"/>
	<path fill="#FFFFFF" d="M315.667,140.818l1.191-0.072c0,0.342,0.052,0.633,0.158,0.875c0.104,0.241,0.299,0.439,0.582,0.592
		c0.282,0.154,0.613,0.23,0.989,0.23c0.526,0,0.921-0.105,1.185-0.315c0.265-0.211,0.396-0.458,0.396-0.744
		c0-0.207-0.079-0.402-0.237-0.586c-0.162-0.185-0.559-0.411-1.187-0.681c-0.63-0.27-1.033-0.459-1.208-0.569
		c-0.295-0.18-0.516-0.391-0.665-0.635c-0.15-0.243-0.225-0.522-0.225-0.839c0-0.552,0.22-1.026,0.659-1.421
		c0.438-0.395,1.052-0.592,1.842-0.592c0.877,0,1.547,0.203,2.004,0.608c0.459,0.406,0.696,0.94,0.715,1.603l-1.166,0.079
		c-0.017-0.421-0.166-0.755-0.447-1c-0.28-0.246-0.678-0.369-1.191-0.369c-0.411,0-0.731,0.095-0.96,0.283s-0.343,0.393-0.343,0.612
		s0.1,0.413,0.297,0.579c0.131,0.114,0.472,0.29,1.019,0.526c0.913,0.395,1.488,0.707,1.726,0.935
		c0.377,0.364,0.565,0.807,0.565,1.33c0,0.347-0.105,0.687-0.32,1.02c-0.212,0.334-0.536,0.601-0.973,0.8
		c-0.437,0.2-0.95,0.299-1.543,0.299c-0.809,0-1.494-0.199-2.06-0.599C315.904,142.367,315.636,141.717,315.667,140.818z"/>
</g>
</svg>
